Apocalypto (2006)

Director: Mel Gibson

Apocalypto is a 2006 American epic action-adventure film directed by Mel Gibson. It was written by Gibson and Farhad Safinia. Set in Yucatan, Mexico, during the declining period of the Maya civilization, Apocalypto depicts the journey of a Mesoamerican tribesman who must escape human sacrifice and rescue his family after the capture and destruction of his village.

Apocalypto gained some passionate champions in the Hollywood community. Actor Robert Duvall called it "maybe the best movie I've seen in 25 years". Director Quentin Tarantino said, "I think it's a masterpiece. It was perhaps the best film of that year. I think it was the best artistic film of that year." Actor Edward James Olmos said, "I was totally caught off guard. It's arguably the best movie I've seen in years. I was blown away."


Media Info:
General
Complete name                            : C:Documents and SettingsOwnerDesktopApocalypto (2006)[Handheld][big_dad_e]Apocalypto (2006)[Handheld][big_dad_e].mp4
Format                                   : MPEG-4
Format profile                           : Base Media / Version 2
Codec ID                                 : mp42
File size                                : 612 MiB
Duration                                 : 2h 18mn
Overall bit rate mode                    : Variable
Overall bit rate                         : 619 Kbps
Encoded date                             : UTC 2012-07-21 14:20:31
Tagged date                              : UTC 2012-07-21 14:26:13
Writing application                      : mp4creator 1.4.4

Video
ID                                       : 1
Format                                   : MPEG-4 Visual
Format profile                           : Simple@L3
Format settings, BVOP                    : No
Format settings, QPel                    : No
Format settings, GMC                     : No warppoints
Format settings, Matrix                  : Default (H.263)
Codec ID                                 : 20
Duration                                 : 2h 18mn
Bit rate mode                            : Variable
Bit rate                                 : 511 Kbps
Maximum bit rate                         : 1 808 Kbps
Width                                    : 320 pixels
Height                                   : 240 pixels
Display aspect ratio                     : 4:3
Frame rate mode                          : Constant
Frame rate                               : 25.000 fps
Color space                              : YUV
Chroma subsampling                       : 4:2:0
Bit depth                                : 8 bits
Scan type                                : Progressive
Compression mode                         : Lossy
Bits/(Pixel*Frame)                       : 0.266
Stream size                              : 505 MiB (83%)
Language                                 : English
Encoded date                             : UTC 2012-07-21 14:20:31
Tagged date                              : UTC 2012-07-21 14:25:07

Audio
ID                                       : 2
Format                                   : AAC
Format/Info                              : Advanced Audio Codec
Format profile                           : LC
Codec ID                                 : 40
Duration                                 : 2h 18mn
Source duration                          : 2h 18mn
Bit rate mode                            : Variable
Bit rate                                 : 106 Kbps
Maximum bit rate                         : 201 Kbps
Channel(s)                               : 2 channels
Channel positions                        : Front: L R
Sampling rate                            : 44.1 KHz
Compression mode                         : Lossy
Stream size                              : 104 MiB (17%)
Source stream size                       : 104 MiB (17%)
Language                                 : English
Encoded date                             : UTC 2012-07-21 14:25:16
Tagged date                              : UTC 2012-07-21 14:26:13

Language: Maya
Subtitles: English
Encoded for iPod

Requests?  Find me on SuprBay. http://forum.suprbay.org
 

For reporting bad or suspicious torrents:    
http://forum.suprbay.org/forumdisplay.php?fid=29

For more of my torrents:   
https://thepiratebay.org/user/big_dad_e/  (Secured)

All torrents scanned with:
Norton Anti-virus
Malwarebytes' Anti-malware
   
http://www.pirate-party.us/

ALWAYS SEED & THANKS SEEDERS!				